<svg id="svg" xmlns="http://www.w3.org/2000/svg" width="400" height="400" viewBox="0, 0, 400,400" version="1.1">
    <style>path{ fill: rgb(116, 127, 141); }</style>
    <g id="svgg">
        <path id="path0"
              d="M187.200 2.744 C 187.200 2.933,184.456 3.219,181.102 3.378 C 177.749 3.538,174.914 3.812,174.802 3.987 C 174.691 4.162,173.340 4.418,171.800 4.557 C 165.372 5.135,164.000 5.328,164.000 5.655 C 164.000 5.845,163.565 6.000,163.033 6.000 C 162.502 6.000,161.976 6.225,161.865 6.500 C 161.754 6.775,161.649 6.815,161.632 6.589 C 161.595 6.115,158.400 6.319,158.400 6.795 C 158.400 6.967,157.230 7.232,155.800 7.385 C 154.370 7.538,153.200 7.833,153.200 8.039 C 153.200 8.246,152.770 8.307,152.244 8.175 C 151.718 8.043,151.175 8.117,151.037 8.340 C 150.900 8.562,149.800 8.867,148.594 9.018 C 147.387 9.169,146.400 9.445,146.400 9.632 C 146.400 9.819,145.500 10.092,144.400 10.238 C 143.300 10.384,142.400 10.631,142.400 10.788 C 142.400 10.945,141.365 11.301,140.100 11.581 C 138.835 11.860,137.620 12.233,137.400 12.409 C 137.180 12.585,136.325 12.855,135.500 13.009 C 134.675 13.163,134.000 13.420,134.000 13.581 C 134.000 13.741,133.010 14.094,131.800 14.365 C 130.590 14.636,129.600 15.004,129.600 15.184 C 129.600 15.364,128.970 15.629,128.200 15.774 C 127.430 15.918,126.800 16.208,126.800 16.418 C 126.800 16.628,126.455 16.800,126.033 16.800 C 124.923 16.800,123.971 17.230,124.213 17.621 C 124.328 17.806,124.054 17.887,123.605 17.801 C 122.860 17.658,120.488 18.622,119.996 19.268 C 119.884 19.416,119.254 19.668,118.596 19.830 C 117.938 19.991,116.773 20.455,116.006 20.861 C 115.239 21.268,114.384 21.600,114.106 21.600 C 113.828 21.600,113.600 21.760,113.600 21.957 C 113.600 22.153,113.150 22.426,112.600 22.564 C 112.050 22.702,111.600 22.968,111.600 23.156 C 111.600 23.343,110.790 23.723,109.800 24.000 C 108.810 24.277,108.000 24.661,108.000 24.852 C 108.000 25.043,107.743 25.200,107.429 25.200 C 107.114 25.200,106.613 25.425,106.315 25.700 C 106.016 25.975,104.700 26.740,103.390 27.400 C 102.079 28.060,100.767 28.825,100.475 29.100 C 100.182 29.375,99.765 29.600,99.548 29.600 C 99.331 29.600,99.271 29.792,99.417 30.027 C 99.562 30.263,99.439 30.398,99.140 30.330 C 98.666 30.221,94.932 32.140,94.400 32.766 C 94.290 32.895,93.660 33.271,93.000 33.600 C 92.340 33.929,91.656 34.424,91.480 34.699 C 91.304 34.975,90.918 35.200,90.623 35.200 C 90.327 35.200,89.982 35.470,89.855 35.800 C 89.729 36.130,89.339 36.400,88.989 36.400 C 88.610 36.400,88.468 36.587,88.638 36.862 C 88.816 37.149,88.748 37.215,88.459 37.036 C 88.203 36.878,87.731 36.985,87.411 37.274 C 86.180 38.384,85.625 38.800,85.375 38.800 C 85.108 38.800,83.094 40.338,81.966 41.402 C 81.618 41.731,81.213 42.000,81.066 42.000 C 80.774 42.000,80.180 42.477,77.839 44.590 C 76.980 45.366,76.071 46.000,75.820 46.000 C 75.568 46.000,74.921 46.532,74.381 47.183 C 73.842 47.834,73.204 48.374,72.964 48.383 C 72.341 48.407,69.595 51.462,69.911 51.778 C 70.057 51.923,69.893 51.934,69.547 51.801 C 68.659 51.460,51.460 68.659,51.801 69.547 C 51.934 69.893,51.923 70.057,51.778 69.911 C 51.462 69.595,48.407 72.341,48.383 72.964 C 48.374 73.204,47.834 73.842,47.183 74.381 C 46.532 74.921,46.000 75.568,46.000 75.820 C 46.000 76.071,45.366 76.980,44.590 77.839 C 42.477 80.180,42.000 80.774,42.000 81.066 C 42.000 81.213,41.731 81.618,41.402 81.966 C 40.319 83.114,38.800 85.111,38.800 85.386 C 38.800 85.535,38.575 85.908,38.300 86.215 C 36.977 87.690,36.780 88.043,37.041 88.467 C 37.215 88.748,37.146 88.814,36.862 88.638 C 36.587 88.468,36.400 88.610,36.400 88.989 C 36.400 89.339,36.130 89.729,35.800 89.855 C 35.470 89.982,35.200 90.327,35.200 90.623 C 35.200 90.918,34.975 91.304,34.699 91.480 C 34.424 91.656,33.929 92.340,33.600 93.000 C 33.271 93.660,32.902 94.290,32.781 94.400 C 32.007 95.101,30.028 98.922,30.252 99.284 C 30.415 99.548,30.340 99.610,30.062 99.438 C 29.808 99.281,29.600 99.331,29.600 99.548 C 29.600 99.765,29.375 100.182,29.100 100.475 C 28.825 100.767,28.060 102.079,27.400 103.390 C 26.740 104.700,25.975 106.016,25.700 106.315 C 25.425 106.613,25.200 107.114,25.200 107.429 C 25.200 107.743,25.043 108.000,24.852 108.000 C 24.661 108.000,24.277 108.810,24.000 109.800 C 23.723 110.790,23.343 111.600,23.156 111.600 C 22.968 111.600,22.702 112.050,22.564 112.600 C 22.426 113.150,22.153 113.600,21.957 113.600 C 21.760 113.600,21.600 113.828,21.600 114.106 C 21.600 114.384,21.268 115.239,20.861 116.006 C 20.455 116.773,19.991 117.938,19.830 118.596 C 19.668 119.254,19.416 119.884,19.268 119.996 C 18.622 120.488,17.658 122.860,17.801 123.605 C 17.887 124.054,17.806 124.328,17.621 124.213 C 17.230 123.971,16.800 124.923,16.800 126.033 C 16.800 126.455,16.628 126.800,16.418 126.800 C 16.208 126.800,15.918 127.430,15.774 128.200 C 15.629 128.970,15.364 129.600,15.184 129.600 C 15.004 129.600,14.636 130.590,14.365 131.800 C 14.094 133.010,13.741 134.000,13.581 134.000 C 13.420 134.000,13.163 134.675,13.009 135.500 C 12.855 136.325,12.585 137.180,12.409 137.400 C 12.233 137.620,11.860 138.835,11.581 140.100 C 11.301 141.365,10.945 142.400,10.788 142.400 C 10.631 142.400,10.384 143.300,10.238 144.400 C 10.092 145.500,9.819 146.400,9.632 146.400 C 9.445 146.400,9.169 147.387,9.018 148.594 C 8.867 149.800,8.562 150.900,8.340 151.037 C 8.117 151.175,8.043 151.718,8.175 152.244 C 8.307 152.770,8.246 153.200,8.039 153.200 C 7.833 153.200,7.538 154.370,7.385 155.800 C 7.232 157.230,6.967 158.400,6.795 158.400 C 6.317 158.400,6.124 161.570,6.590 161.765 C 6.815 161.860,6.775 161.951,6.500 161.968 C 6.225 161.986,6.000 162.450,6.000 163.000 C 6.000 163.550,5.845 164.000,5.655 164.000 C 5.328 164.000,5.135 165.372,4.557 171.800 C 4.418 173.340,4.162 174.691,3.987 174.802 C 3.812 174.914,3.538 177.749,3.378 181.102 C 3.219 184.456,2.933 187.200,2.744 187.200 C 2.555 187.200,2.400 192.870,2.400 199.800 C 2.400 206.730,2.553 212.400,2.741 212.400 C 2.928 212.400,3.209 215.141,3.365 218.491 C 3.521 221.842,3.793 224.677,3.970 224.791 C 4.147 224.906,4.406 226.260,4.545 227.800 C 5.206 235.098,5.324 236.000,5.611 236.000 C 5.780 236.000,6.045 237.260,6.200 238.800 C 6.355 240.340,6.629 241.600,6.809 241.600 C 6.989 241.600,7.262 242.770,7.415 244.200 C 7.568 245.630,7.833 246.800,8.004 246.800 C 8.175 246.800,8.318 247.205,8.321 247.700 C 8.328 248.865,9.202 252.482,9.601 253.000 C 9.771 253.220,10.036 254.165,10.190 255.100 C 10.344 256.035,10.606 256.800,10.771 256.800 C 10.937 256.800,11.297 258.059,11.572 259.599 C 11.847 261.138,12.220 262.489,12.401 262.601 C 12.582 262.713,12.852 263.523,13.000 264.402 C 13.149 265.281,13.422 266.000,13.606 266.000 C 13.791 266.000,14.164 266.990,14.435 268.200 C 14.706 269.410,15.071 270.400,15.246 270.400 C 15.421 270.400,15.682 271.030,15.826 271.800 C 15.971 272.570,16.241 273.200,16.426 273.200 C 16.612 273.200,16.882 273.830,17.026 274.600 C 17.171 275.370,17.443 276.000,17.632 276.000 C 17.821 276.000,17.871 276.270,17.745 276.600 C 17.618 276.930,17.706 277.200,17.939 277.200 C 18.173 277.200,18.482 277.830,18.626 278.600 C 18.771 279.370,19.049 280.000,19.245 280.000 C 19.440 280.000,19.600 280.208,19.600 280.461 C 19.600 280.715,20.025 281.840,20.545 282.961 C 21.065 284.083,21.820 285.765,22.222 286.700 C 22.625 287.635,23.085 288.400,23.245 288.400 C 23.405 288.400,23.658 288.952,23.806 289.627 C 23.954 290.302,24.317 290.947,24.613 291.060 C 24.909 291.174,25.266 291.792,25.407 292.433 C 25.548 293.075,25.801 293.600,25.968 293.600 C 26.136 293.600,26.483 294.299,26.739 295.153 C 26.994 296.006,27.473 296.928,27.802 297.202 C 28.131 297.475,28.400 297.946,28.400 298.249 C 28.400 298.552,28.544 298.800,28.720 298.800 C 28.895 298.800,29.267 299.430,29.546 300.200 C 29.824 300.970,30.220 301.600,30.426 301.600 C 30.632 301.600,30.800 301.842,30.800 302.139 C 30.800 302.435,31.160 303.093,31.600 303.600 C 32.040 304.107,32.400 304.765,32.400 305.061 C 32.400 305.358,32.584 305.600,32.810 305.600 C 33.035 305.600,33.391 306.050,33.600 306.600 C 33.809 307.150,34.165 307.600,34.390 307.600 C 34.616 307.600,34.800 307.842,34.800 308.139 C 34.800 308.435,35.165 309.098,35.611 309.613 C 36.057 310.127,36.523 310.951,36.647 311.445 C 36.771 311.938,37.126 312.439,37.436 312.559 C 37.746 312.678,38.000 313.031,38.000 313.345 C 38.000 313.658,38.270 314.018,38.600 314.145 C 38.930 314.271,39.200 314.623,39.200 314.925 C 39.200 315.228,39.560 315.802,40.000 316.200 C 40.440 316.598,40.800 317.076,40.800 317.262 C 40.800 317.448,41.115 317.928,41.500 318.329 C 41.885 318.729,42.740 319.732,43.400 320.558 C 44.060 321.383,44.881 322.394,45.225 322.804 C 45.569 323.214,46.199 324.033,46.625 324.623 C 47.051 325.214,47.985 326.278,48.700 326.989 C 49.415 327.699,50.003 328.443,50.006 328.640 C 50.009 328.838,50.999 329.965,52.206 331.145 C 53.413 332.325,54.400 333.437,54.400 333.617 C 54.400 334.277,60.867 340.406,61.289 340.145 C 61.547 339.985,61.609 340.062,61.440 340.335 C 61.172 340.769,65.727 345.600,66.405 345.600 C 66.572 345.600,67.675 346.587,68.855 347.794 C 70.035 349.001,71.132 349.991,71.293 349.994 C 71.454 349.997,72.200 350.585,72.950 351.300 C 73.701 352.015,74.740 352.907,75.258 353.283 C 77.266 354.738,78.115 355.426,78.734 356.100 C 79.088 356.485,79.608 356.800,79.889 356.800 C 80.170 356.800,80.400 356.984,80.400 357.209 C 80.400 357.433,80.878 357.835,81.461 358.101 C 82.045 358.367,83.054 359.064,83.704 359.650 C 85.707 361.458,86.735 362.197,88.980 363.447 C 89.630 363.808,90.408 364.350,90.709 364.652 C 91.010 364.953,91.514 365.200,91.829 365.200 C 92.143 365.200,92.400 365.384,92.400 365.610 C 92.400 365.835,92.850 366.191,93.400 366.400 C 93.950 366.609,94.400 366.950,94.400 367.158 C 94.400 367.366,94.940 367.655,95.600 367.800 C 96.260 367.945,96.800 368.216,96.800 368.402 C 96.800 368.709,97.651 369.232,100.297 370.552 C 100.790 370.799,101.195 371.121,101.197 371.268 C 101.199 371.416,101.725 371.652,102.367 371.793 C 103.008 371.934,103.626 372.291,103.740 372.587 C 103.853 372.883,104.498 373.246,105.173 373.394 C 105.848 373.542,106.400 373.821,106.400 374.014 C 106.400 374.206,107.028 374.482,107.796 374.626 C 108.565 374.770,109.099 375.039,108.985 375.224 C 108.871 375.409,109.502 375.778,110.388 376.044 C 111.275 376.309,112.000 376.664,112.000 376.832 C 112.000 376.999,112.540 377.255,113.200 377.400 C 113.860 377.545,114.400 377.787,114.400 377.937 C 114.400 378.281,117.830 379.885,119.300 380.229 C 119.905 380.371,120.400 380.647,120.400 380.843 C 120.400 381.040,120.590 381.200,120.822 381.200 C 121.054 381.200,122.044 381.565,123.022 382.010 C 124.000 382.456,125.340 382.928,126.000 383.060 C 126.660 383.192,127.200 383.449,127.200 383.632 C 127.200 383.814,127.830 384.082,128.600 384.226 C 129.370 384.371,130.000 384.615,130.000 384.769 C 130.000 384.923,130.945 385.286,132.100 385.576 C 133.255 385.866,134.380 386.244,134.600 386.416 C 134.820 386.588,135.675 386.855,136.500 387.009 C 137.325 387.163,138.000 387.433,138.000 387.608 C 138.000 387.784,139.260 388.140,140.800 388.400 C 142.340 388.660,143.600 389.030,143.600 389.222 C 143.600 389.415,144.500 389.692,145.600 389.838 C 146.700 389.984,147.600 390.239,147.600 390.405 C 147.600 390.572,148.590 390.832,149.800 390.983 C 151.010 391.134,152.000 391.396,152.000 391.564 C 152.000 391.733,153.575 392.108,155.500 392.398 C 157.425 392.688,159.180 393.057,159.400 393.218 C 159.620 393.379,160.970 393.643,162.400 393.804 C 163.830 393.965,165.090 394.238,165.201 394.411 C 165.311 394.584,167.921 394.955,171.001 395.234 C 174.080 395.514,176.695 395.882,176.812 396.052 C 176.928 396.222,180.573 396.488,184.912 396.642 C 189.250 396.797,192.800 397.075,192.800 397.261 C 192.800 397.448,196.040 397.600,200.000 397.600 C 203.960 397.600,207.200 397.443,207.200 397.250 C 207.200 396.938,216.321 396.377,220.700 396.420 C 221.635 396.429,222.400 396.287,222.400 396.103 C 222.400 395.919,225.051 395.540,228.292 395.260 C 231.532 394.980,234.277 394.604,234.392 394.423 C 234.506 394.243,235.905 393.966,237.500 393.807 C 239.095 393.649,240.400 393.383,240.400 393.216 C 240.400 393.050,242.019 392.692,243.998 392.422 C 245.977 392.152,247.684 391.787,247.793 391.612 C 247.901 391.437,248.982 391.170,250.195 391.018 C 251.408 390.866,252.400 390.582,252.400 390.385 C 252.400 390.188,253.300 389.908,254.400 389.762 C 255.500 389.616,256.400 389.361,256.400 389.194 C 256.400 389.027,257.570 388.670,259.000 388.400 C 260.430 388.130,261.600 387.766,261.600 387.590 C 261.600 387.414,262.320 387.149,263.200 387.000 C 264.080 386.851,264.800 386.581,264.800 386.400 C 264.800 386.219,265.565 385.944,266.500 385.791 C 267.435 385.637,268.955 385.171,269.878 384.756 C 270.801 384.340,271.817 384.000,272.135 384.000 C 272.454 384.000,272.819 383.728,272.946 383.396 C 273.073 383.064,273.318 382.831,273.489 382.877 C 274.137 383.054,276.800 382.348,276.800 382.000 C 276.800 381.800,277.430 381.518,278.200 381.374 C 278.970 381.229,279.600 380.979,279.600 380.819 C 279.600 380.658,280.320 380.311,281.200 380.047 C 282.080 379.784,282.800 379.395,282.800 379.184 C 282.800 378.973,283.171 378.800,283.624 378.800 C 284.077 378.800,284.346 378.637,284.223 378.437 C 284.100 378.238,284.359 378.169,284.799 378.284 C 285.240 378.399,285.600 378.307,285.600 378.078 C 285.600 377.850,286.140 377.545,286.800 377.400 C 287.460 377.255,288.000 376.999,288.000 376.832 C 288.000 376.664,288.720 376.311,289.600 376.047 C 290.480 375.784,291.200 375.415,291.200 375.227 C 291.200 375.040,291.650 374.774,292.200 374.636 C 292.750 374.498,293.200 374.208,293.200 373.992 C 293.200 373.777,293.470 373.600,293.800 373.600 C 294.130 373.600,294.400 373.458,294.400 373.285 C 294.400 373.112,294.802 372.940,295.294 372.903 C 295.786 372.866,296.251 372.648,296.327 372.418 C 296.404 372.188,296.713 372.000,297.013 372.000 C 297.314 372.000,297.704 371.755,297.880 371.457 C 298.056 371.158,298.861 370.698,299.668 370.436 C 300.475 370.174,301.352 369.698,301.617 369.380 C 301.882 369.061,302.346 368.800,302.649 368.800 C 302.952 368.800,303.200 368.632,303.200 368.427 C 303.200 368.222,303.563 367.939,304.006 367.798 C 304.449 367.657,304.722 367.397,304.612 367.220 C 304.503 367.043,304.908 366.798,305.512 366.678 C 306.116 366.557,307.041 366.085,307.567 365.629 C 308.092 365.173,308.765 364.800,309.061 364.800 C 309.358 364.800,309.600 364.616,309.600 364.390 C 309.600 364.165,310.050 363.809,310.600 363.600 C 311.150 363.391,311.600 363.035,311.600 362.810 C 311.600 362.584,311.861 362.400,312.180 362.400 C 312.499 362.400,312.904 362.171,313.080 361.892 C 313.256 361.612,313.895 361.166,314.500 360.900 C 315.105 360.635,315.600 360.233,315.600 360.009 C 315.600 359.784,315.876 359.600,316.213 359.600 C 316.549 359.600,316.922 359.346,317.041 359.037 C 317.160 358.727,317.772 358.260,318.400 358.000 C 319.028 357.740,319.640 357.273,319.759 356.963 C 319.878 356.654,320.208 356.400,320.492 356.400 C 320.776 356.400,321.455 355.860,322.000 355.200 C 322.545 354.540,323.191 354.000,323.435 354.000 C 323.905 354.000,325.861 352.386,328.403 349.900 C 329.247 349.075,330.057 348.400,330.203 348.400 C 330.350 348.400,331.468 347.410,332.687 346.200 C 333.907 344.990,335.091 344.000,335.319 344.000 C 335.547 344.000,335.624 343.891,335.491 343.758 C 335.235 343.502,336.478 342.235,338.234 340.964 C 339.556 340.006,340.006 339.556,340.964 338.234 C 342.235 336.478,343.502 335.235,343.758 335.491 C 343.891 335.624,344.000 335.547,344.000 335.319 C 344.000 335.091,344.990 333.907,346.200 332.687 C 347.410 331.468,348.400 330.350,348.400 330.203 C 348.400 330.057,349.075 329.247,349.900 328.403 C 352.386 325.861,354.000 323.905,354.000 323.435 C 354.000 323.191,354.540 322.545,355.200 322.000 C 355.860 321.455,356.400 320.776,356.400 320.492 C 356.400 320.208,356.654 319.878,356.963 319.759 C 357.273 319.640,357.740 319.028,358.000 318.400 C 358.260 317.772,358.727 317.160,359.037 317.041 C 359.346 316.922,359.600 316.549,359.600 316.213 C 359.600 315.876,359.784 315.600,360.009 315.600 C 360.233 315.600,360.635 315.105,360.900 314.500 C 361.166 313.895,361.612 313.256,361.892 313.080 C 362.171 312.904,362.400 312.499,362.400 312.180 C 362.400 311.861,362.584 311.600,362.810 311.600 C 363.035 311.600,363.391 311.150,363.600 310.600 C 363.809 310.050,364.165 309.600,364.390 309.600 C 364.616 309.600,364.800 309.358,364.800 309.061 C 364.800 308.765,365.173 308.092,365.629 307.567 C 366.085 307.041,366.557 306.116,366.678 305.512 C 366.798 304.908,367.043 304.503,367.220 304.612 C 367.397 304.722,367.657 304.449,367.798 304.006 C 367.939 303.563,368.222 303.200,368.427 303.200 C 368.632 303.200,368.800 302.952,368.800 302.649 C 368.800 302.346,369.061 301.882,369.380 301.617 C 369.698 301.352,370.174 300.475,370.436 299.668 C 370.698 298.861,371.158 298.056,371.457 297.880 C 371.755 297.704,372.000 297.314,372.000 297.013 C 372.000 296.713,372.188 296.404,372.418 296.327 C 372.648 296.251,372.866 295.786,372.903 295.294 C 372.940 294.802,373.112 294.400,373.285 294.400 C 373.458 294.400,373.600 294.130,373.600 293.800 C 373.600 293.470,373.777 293.200,373.992 293.200 C 374.208 293.200,374.498 292.750,374.636 292.200 C 374.774 291.650,375.040 291.200,375.227 291.200 C 375.415 291.200,375.784 290.480,376.047 289.600 C 376.311 288.720,376.664 288.000,376.832 288.000 C 376.999 288.000,377.255 287.460,377.400 286.800 C 377.545 286.140,377.850 285.600,378.078 285.600 C 378.307 285.600,378.399 285.240,378.284 284.799 C 378.169 284.359,378.238 284.100,378.437 284.223 C 378.637 284.346,378.800 284.077,378.800 283.624 C 378.800 283.171,378.973 282.800,379.184 282.800 C 379.395 282.800,379.784 282.080,380.047 281.200 C 380.311 280.320,380.658 279.600,380.819 279.600 C 380.979 279.600,381.229 278.970,381.374 278.200 C 381.518 277.430,381.800 276.800,382.000 276.800 C 382.348 276.800,383.054 274.137,382.877 273.489 C 382.831 273.318,383.064 273.073,383.396 272.946 C 383.728 272.819,384.000 272.454,384.000 272.135 C 384.000 271.817,384.340 270.801,384.756 269.878 C 385.171 268.955,385.637 267.435,385.791 266.500 C 385.944 265.565,386.219 264.800,386.400 264.800 C 386.581 264.800,386.851 264.080,387.000 263.200 C 387.149 262.320,387.414 261.600,387.590 261.600 C 387.766 261.600,388.130 260.430,388.400 259.000 C 388.670 257.570,389.027 256.400,389.194 256.400 C 389.361 256.400,389.616 255.500,389.762 254.400 C 389.908 253.300,390.188 252.400,390.385 252.400 C 390.582 252.400,390.866 251.408,391.018 250.195 C 391.170 248.982,391.437 247.901,391.612 247.793 C 391.787 247.684,392.152 245.977,392.422 243.998 C 392.692 242.019,393.050 240.400,393.216 240.400 C 393.383 240.400,393.649 239.095,393.807 237.500 C 393.966 235.905,394.243 234.506,394.423 234.392 C 394.604 234.277,394.980 231.532,395.260 228.292 C 395.540 225.051,395.919 222.400,396.103 222.400 C 396.287 222.400,396.429 221.635,396.420 220.700 C 396.377 216.321,396.938 207.200,397.250 207.200 C 397.443 207.200,397.600 203.960,397.600 200.000 C 397.600 196.040,397.448 192.800,397.261 192.800 C 397.075 192.800,396.797 189.250,396.642 184.912 C 396.488 180.573,396.222 176.928,396.052 176.812 C 395.882 176.695,395.514 174.080,395.234 171.001 C 394.955 167.921,394.584 165.311,394.411 165.201 C 394.238 165.090,393.965 163.830,393.804 162.400 C 393.643 160.970,393.379 159.620,393.218 159.400 C 393.057 159.180,392.688 157.425,392.398 155.500 C 392.108 153.575,391.733 152.000,391.564 152.000 C 391.396 152.000,391.134 151.010,390.983 149.800 C 390.832 148.590,390.572 147.600,390.405 147.600 C 390.239 147.600,389.984 146.700,389.838 145.600 C 389.692 144.500,389.415 143.600,389.222 143.600 C 389.030 143.600,388.660 142.340,388.400 140.800 C 388.140 139.260,387.784 138.000,387.608 138.000 C 387.433 138.000,387.163 137.325,387.009 136.500 C 386.855 135.675,386.588 134.820,386.416 134.600 C 386.244 134.380,385.866 133.255,385.576 132.100 C 385.286 130.945,384.923 130.000,384.769 130.000 C 384.615 130.000,384.371 129.370,384.226 128.600 C 384.082 127.830,383.814 127.200,383.632 127.200 C 383.449 127.200,383.192 126.660,383.060 126.000 C 382.928 125.340,382.456 124.000,382.010 123.022 C 381.565 122.044,381.200 121.054,381.200 120.822 C 381.200 120.590,381.040 120.400,380.843 120.400 C 380.647 120.400,380.371 119.905,380.229 119.300 C 379.885 117.830,378.281 114.400,377.937 114.400 C 377.787 114.400,377.545 113.860,377.400 113.200 C 377.255 112.540,376.999 112.000,376.832 112.000 C 376.664 112.000,376.309 111.275,376.044 110.388 C 375.778 109.502,375.409 108.871,375.224 108.985 C 375.039 109.099,374.770 108.565,374.626 107.796 C 374.482 107.028,374.206 106.400,374.014 106.400 C 373.821 106.400,373.542 105.848,373.394 105.173 C 373.246 104.498,372.883 103.853,372.587 103.740 C 372.291 103.626,371.934 103.008,371.793 102.367 C 371.652 101.725,371.416 101.199,371.268 101.197 C 371.121 101.195,370.799 100.790,370.552 100.297 C 369.232 97.651,368.709 96.800,368.402 96.800 C 368.216 96.800,367.945 96.260,367.800 95.600 C 367.655 94.940,367.366 94.400,367.158 94.400 C 366.950 94.400,366.609 93.950,366.400 93.400 C 366.191 92.850,365.835 92.400,365.610 92.400 C 365.384 92.400,365.200 92.143,365.200 91.829 C 365.200 91.514,364.953 91.010,364.652 90.709 C 364.350 90.408,363.808 89.630,363.447 88.980 C 362.197 86.735,361.458 85.707,359.650 83.704 C 359.064 83.054,358.367 82.045,358.101 81.461 C 357.835 80.878,357.433 80.400,357.209 80.400 C 356.984 80.400,356.800 80.170,356.800 79.889 C 356.800 79.608,356.485 79.094,356.100 78.747 C 355.715 78.399,355.093 77.684,354.717 77.158 C 353.463 75.399,352.610 74.352,351.300 72.963 C 350.585 72.206,349.997 71.454,349.994 71.293 C 349.991 71.132,349.001 70.035,347.794 68.855 C 346.587 67.675,345.600 66.572,345.600 66.405 C 345.600 65.727,340.769 61.172,340.335 61.440 C 340.062 61.609,339.985 61.547,340.145 61.289 C 340.406 60.867,334.277 54.400,333.617 54.400 C 333.437 54.400,332.325 53.413,331.145 52.206 C 329.965 50.999,328.838 50.009,328.640 50.006 C 328.443 50.003,327.699 49.415,326.989 48.700 C 326.278 47.985,325.190 47.040,324.571 46.600 C 323.952 46.160,323.170 45.485,322.833 45.100 C 322.497 44.715,322.101 44.400,321.952 44.400 C 321.689 44.400,319.829 42.906,318.341 41.500 C 317.933 41.115,317.448 40.800,317.262 40.800 C 317.076 40.800,316.598 40.440,316.200 40.000 C 315.802 39.560,315.228 39.200,314.925 39.200 C 314.623 39.200,314.271 38.930,314.145 38.600 C 314.018 38.270,313.658 38.000,313.345 38.000 C 313.031 38.000,312.678 37.746,312.559 37.436 C 312.439 37.126,311.938 36.771,311.445 36.647 C 310.951 36.523,310.127 36.057,309.613 35.611 C 309.098 35.165,308.435 34.800,308.139 34.800 C 307.842 34.800,307.600 34.616,307.600 34.390 C 307.600 34.165,307.150 33.809,306.600 33.600 C 306.050 33.391,305.600 33.035,305.600 32.810 C 305.600 32.584,305.358 32.400,305.061 32.400 C 304.765 32.400,304.107 32.040,303.600 31.600 C 303.093 31.160,302.435 30.800,302.139 30.800 C 301.842 30.800,301.600 30.632,301.600 30.426 C 301.600 30.220,300.970 29.824,300.200 29.546 C 299.430 29.267,298.800 28.895,298.800 28.720 C 298.800 28.544,298.552 28.400,298.249 28.400 C 297.946 28.400,297.475 28.131,297.202 27.802 C 296.928 27.473,296.006 26.994,295.153 26.739 C 294.299 26.483,293.600 26.136,293.600 25.968 C 293.600 25.801,293.075 25.548,292.433 25.407 C 291.792 25.266,291.174 24.909,291.060 24.613 C 290.947 24.317,290.302 23.954,289.627 23.806 C 288.952 23.658,288.400 23.405,288.400 23.245 C 288.400 23.085,287.635 22.625,286.700 22.222 C 285.765 21.820,284.083 21.065,282.961 20.545 C 281.840 20.025,280.715 19.600,280.461 19.600 C 280.208 19.600,280.000 19.440,280.000 19.245 C 280.000 19.049,279.370 18.771,278.600 18.626 C 277.830 18.482,277.200 18.173,277.200 17.939 C 277.200 17.706,276.930 17.618,276.600 17.745 C 276.270 17.871,276.000 17.821,276.000 17.632 C 276.000 17.443,275.370 17.171,274.600 17.026 C 273.830 16.882,273.200 16.612,273.200 16.426 C 273.200 16.241,272.570 15.971,271.800 15.826 C 271.030 15.682,270.400 15.421,270.400 15.246 C 270.400 15.071,269.410 14.706,268.200 14.435 C 266.990 14.164,266.000 13.791,266.000 13.606 C 266.000 13.422,265.281 13.149,264.402 13.000 C 263.523 12.852,262.713 12.582,262.601 12.401 C 262.489 12.220,261.138 11.847,259.599 11.572 C 258.059 11.297,256.800 10.937,256.800 10.771 C 256.800 10.606,256.035 10.344,255.100 10.190 C 254.165 10.036,253.220 9.771,253.000 9.601 C 252.482 9.202,248.865 8.328,247.700 8.321 C 247.205 8.318,246.800 8.175,246.800 8.004 C 246.800 7.833,245.630 7.568,244.200 7.415 C 242.770 7.262,241.600 6.989,241.600 6.809 C 241.600 6.629,240.340 6.355,238.800 6.200 C 237.260 6.045,236.000 5.780,236.000 5.611 C 236.000 5.324,235.098 5.206,227.800 4.545 C 226.260 4.406,224.906 4.147,224.791 3.970 C 224.677 3.793,221.842 3.521,218.491 3.365 C 215.141 3.209,212.400 2.928,212.400 2.741 C 212.400 2.553,206.730 2.400,199.800 2.400 C 192.870 2.400,187.200 2.555,187.200 2.744 M193.000 108.399 C 193.220 108.560,196.322 108.812,199.894 108.958 C 209.503 109.352,213.776 109.666,214.000 109.997 C 214.110 110.160,216.270 110.424,218.800 110.584 C 221.330 110.745,223.580 111.015,223.800 111.185 C 224.020 111.356,226.540 111.718,229.400 111.990 C 232.260 112.262,234.780 112.623,235.000 112.791 C 235.220 112.960,236.750 113.226,238.400 113.383 C 240.050 113.540,241.580 113.807,241.800 113.977 C 242.020 114.146,244.135 114.518,246.500 114.802 C 248.865 115.086,250.800 115.451,250.800 115.612 C 250.800 115.774,251.970 116.032,253.400 116.185 C 254.830 116.338,256.000 116.594,256.000 116.754 C 256.000 116.914,257.620 117.285,259.600 117.578 C 261.580 117.871,263.200 118.246,263.200 118.410 C 263.200 118.574,264.190 118.832,265.400 118.983 C 266.610 119.134,267.600 119.407,267.600 119.590 C 267.600 119.772,268.680 120.047,270.000 120.200 C 271.320 120.353,272.400 120.625,272.400 120.803 C 272.400 120.981,273.660 121.353,275.200 121.628 C 276.740 121.903,278.000 122.262,278.000 122.427 C 278.000 122.591,278.900 122.849,280.000 123.000 C 281.100 123.151,282.000 123.414,282.000 123.583 C 282.000 123.752,283.080 124.120,284.400 124.400 C 285.720 124.680,286.800 125.044,286.800 125.209 C 286.800 125.374,287.610 125.631,288.600 125.779 C 289.590 125.928,290.400 126.193,290.400 126.370 C 290.400 126.546,291.480 126.920,292.800 127.200 C 294.120 127.480,295.200 127.850,295.200 128.023 C 295.200 128.195,295.785 128.462,296.500 128.614 C 297.215 128.767,297.984 129.040,298.210 129.220 C 298.435 129.401,299.091 129.612,299.666 129.689 C 300.241 129.766,300.963 130.038,301.271 130.293 C 301.579 130.549,302.679 130.985,303.716 131.262 C 304.752 131.539,305.600 131.900,305.600 132.065 C 305.600 132.229,306.230 132.482,307.000 132.626 C 307.770 132.771,308.400 133.032,308.400 133.208 C 308.400 133.383,309.300 133.757,310.400 134.039 C 311.500 134.321,312.400 134.697,312.400 134.876 C 312.400 135.054,312.657 135.200,312.971 135.200 C 313.286 135.200,313.786 135.443,314.082 135.740 C 314.379 136.036,315.337 136.513,316.211 136.798 C 317.085 137.083,317.890 137.427,318.000 137.562 C 318.335 137.974,322.578 140.000,323.106 140.000 C 323.378 140.000,323.600 140.166,323.600 140.368 C 323.600 140.571,324.140 140.855,324.800 141.000 C 325.460 141.145,326.000 141.392,326.000 141.549 C 326.000 141.705,327.080 142.329,328.400 142.935 C 329.720 143.541,330.800 144.194,330.800 144.387 C 330.800 144.579,331.340 144.855,332.000 145.000 C 332.660 145.145,333.200 145.385,333.200 145.534 C 333.200 145.683,333.763 146.054,334.451 146.358 C 336.105 147.091,339.994 151.051,341.000 153.028 C 341.440 153.893,341.980 154.732,342.200 154.894 C 342.420 155.056,342.443 155.191,342.251 155.194 C 342.059 155.197,342.149 155.498,342.451 155.861 C 343.198 156.762,343.234 166.396,342.493 167.288 C 342.214 167.624,342.110 168.221,342.261 168.615 C 342.437 169.074,342.383 169.237,342.111 169.068 C 341.870 168.920,341.577 169.238,341.435 169.803 C 341.297 170.351,341.008 170.800,340.792 170.800 C 340.577 170.800,340.400 171.064,340.400 171.386 C 340.400 171.708,340.061 172.153,339.646 172.375 C 339.231 172.597,338.779 173.231,338.640 173.783 C 338.482 174.411,338.011 174.882,337.383 175.040 C 336.831 175.179,336.197 175.631,335.975 176.046 C 335.753 176.461,335.308 176.800,334.986 176.800 C 334.664 176.800,334.400 176.957,334.400 177.148 C 334.400 177.339,333.545 177.731,332.500 178.018 C 331.455 178.306,330.476 178.727,330.325 178.954 C 329.960 179.502,321.640 179.502,321.275 178.954 C 321.124 178.727,320.145 178.306,319.100 178.018 C 318.055 177.731,317.200 177.343,317.200 177.156 C 317.200 176.968,316.750 176.702,316.200 176.564 C 315.650 176.426,315.200 176.167,315.200 175.988 C 315.200 175.809,314.570 175.454,313.800 175.200 C 313.030 174.946,312.400 174.586,312.400 174.401 C 312.400 174.215,311.860 173.945,311.200 173.800 C 310.540 173.655,310.000 173.371,310.000 173.168 C 310.000 172.966,309.803 172.800,309.562 172.800 C 309.321 172.800,308.635 172.452,308.037 172.027 C 307.440 171.601,306.467 171.132,305.876 170.983 C 305.284 170.835,304.800 170.561,304.800 170.375 C 304.800 170.189,304.170 169.918,303.400 169.774 C 302.630 169.629,302.000 169.351,302.000 169.155 C 302.000 168.960,301.865 168.823,301.700 168.852 C 301.200 168.939,298.800 167.845,298.800 167.530 C 298.800 167.369,298.170 167.118,297.400 166.974 C 296.630 166.829,296.000 166.568,296.000 166.392 C 296.000 166.217,295.100 165.843,294.000 165.561 C 292.900 165.279,292.000 164.911,292.000 164.743 C 292.000 164.574,291.370 164.318,290.600 164.174 C 289.830 164.029,289.200 163.764,289.200 163.584 C 289.200 163.404,288.210 163.036,287.000 162.765 C 285.790 162.494,284.800 162.129,284.800 161.954 C 284.800 161.779,284.168 161.518,283.396 161.373 C 282.623 161.228,281.902 160.965,281.793 160.789 C 281.685 160.614,280.877 160.348,279.998 160.200 C 279.119 160.051,278.400 159.745,278.400 159.518 C 278.400 159.292,278.040 159.201,277.600 159.316 C 277.160 159.431,276.800 159.373,276.800 159.187 C 276.800 159.001,275.990 158.728,275.000 158.579 C 274.010 158.431,273.200 158.161,273.200 157.979 C 273.200 157.798,272.345 157.523,271.300 157.369 C 270.255 157.215,269.305 156.942,269.188 156.763 C 269.071 156.584,267.766 156.208,266.288 155.927 C 264.810 155.647,263.600 155.292,263.600 155.138 C 263.600 154.984,262.610 154.734,261.400 154.583 C 260.190 154.432,259.200 154.129,259.200 153.910 C 259.200 153.691,258.583 153.585,257.828 153.673 C 257.073 153.761,256.544 153.690,256.652 153.516 C 256.759 153.342,256.432 153.185,255.924 153.167 C 254.226 153.107,252.617 152.752,252.392 152.387 C 252.270 152.189,251.096 151.904,249.785 151.753 C 248.473 151.602,247.310 151.362,247.200 151.220 C 246.913 150.849,242.101 149.929,240.132 149.870 C 239.215 149.842,238.541 149.695,238.635 149.544 C 238.728 149.393,237.454 149.142,235.802 148.987 C 234.151 148.833,232.800 148.564,232.800 148.390 C 232.800 148.217,231.090 147.946,229.000 147.790 C 226.910 147.633,225.200 147.380,225.200 147.228 C 225.200 147.075,224.435 146.964,223.500 146.982 C 222.565 146.999,221.710 146.900,221.600 146.762 C 221.490 146.623,219.427 146.389,217.015 146.242 C 214.604 146.094,212.534 145.817,212.415 145.625 C 212.297 145.434,209.500 145.145,206.200 144.984 C 202.538 144.805,200.089 144.518,199.915 144.246 C 199.709 143.925,191.765 143.800,171.600 143.800 C 151.435 143.800,143.491 143.925,143.285 144.246 C 143.111 144.518,140.662 144.805,137.000 144.984 C 133.700 145.145,130.910 145.417,130.800 145.587 C 130.690 145.758,128.665 146.028,126.300 146.187 C 123.935 146.347,122.000 146.607,122.000 146.766 C 122.000 146.925,121.190 147.008,120.200 146.949 C 119.210 146.891,118.400 146.992,118.400 147.174 C 118.400 147.356,116.870 147.633,115.000 147.789 C 113.130 147.944,111.600 148.220,111.600 148.402 C 111.600 148.583,110.252 148.858,108.605 149.012 C 106.958 149.167,105.681 149.407,105.767 149.547 C 105.853 149.686,105.356 149.832,104.662 149.870 C 102.866 149.970,98.238 150.911,98.000 151.225 C 97.890 151.370,96.945 151.615,95.900 151.769 C 94.855 151.923,94.000 152.183,94.000 152.347 C 94.000 152.510,92.605 152.878,90.900 153.164 C 89.195 153.450,87.672 153.890,87.515 154.142 C 87.090 154.823,77.921 154.763,77.089 154.073 C 76.740 153.784,75.828 153.514,75.064 153.473 C 74.299 153.433,73.743 153.328,73.829 153.241 C 74.022 153.044,72.392 151.600,71.978 151.600 C 71.451 151.600,68.000 147.889,68.000 147.322 C 68.000 147.021,67.741 146.676,67.424 146.554 C 67.108 146.433,66.734 145.808,66.593 145.167 C 66.452 144.525,66.187 144.000,66.003 144.000 C 65.820 144.000,65.549 143.280,65.400 142.400 C 65.251 141.520,64.966 140.800,64.765 140.800 C 64.564 140.800,64.400 139.180,64.400 137.200 C 64.400 135.220,64.560 133.600,64.755 133.600 C 64.950 133.600,65.231 132.790,65.379 131.800 C 65.528 130.810,65.818 130.000,66.025 130.000 C 66.231 130.000,66.400 129.808,66.400 129.573 C 66.400 129.339,66.850 128.557,67.400 127.836 C 67.950 127.114,68.400 126.391,68.400 126.229 C 68.400 125.788,71.151 123.200,71.620 123.200 C 71.843 123.200,72.129 122.930,72.255 122.600 C 72.382 122.270,72.691 121.994,72.943 121.987 C 73.194 121.981,74.300 121.532,75.400 120.991 C 76.500 120.450,77.805 120.006,78.300 120.004 C 78.795 120.002,79.200 119.826,79.200 119.614 C 79.200 119.401,80.100 119.108,81.200 118.962 C 82.300 118.816,83.200 118.553,83.200 118.378 C 83.200 118.202,84.546 117.841,86.191 117.576 C 87.835 117.310,89.082 116.933,88.961 116.737 C 88.840 116.541,88.889 116.413,89.070 116.454 C 89.802 116.618,94.400 115.876,94.400 115.593 C 94.400 115.427,96.200 115.061,98.400 114.780 C 100.600 114.500,102.400 114.120,102.400 113.935 C 102.400 113.751,103.041 113.600,103.824 113.600 C 104.607 113.600,105.162 113.462,105.057 113.293 C 104.953 113.124,105.576 113.053,106.441 113.135 C 107.307 113.218,108.266 113.077,108.573 112.823 C 108.880 112.568,110.001 112.299,111.065 112.226 C 116.007 111.884,119.435 111.477,119.800 111.189 C 120.020 111.016,122.090 110.743,124.400 110.583 C 126.710 110.423,128.693 110.148,128.808 109.972 C 128.922 109.796,131.262 109.544,134.008 109.412 C 136.753 109.280,139.802 109.071,140.782 108.949 C 141.762 108.826,144.057 108.742,145.882 108.762 C 147.800 108.783,149.200 108.633,149.200 108.407 C 149.200 107.678,192.007 107.670,193.000 108.399 M154.305 144.275 C 153.922 144.375,153.202 144.379,152.705 144.283 C 152.207 144.187,152.520 144.105,153.400 144.101 C 154.280 144.096,154.687 144.175,154.305 144.275 M189.500 144.276 C 189.115 144.376,188.485 144.376,188.100 144.276 C 187.715 144.175,188.030 144.093,188.800 144.093 C 189.570 144.093,189.885 144.175,189.500 144.276 M343.887 162.695 C 343.795 163.303,343.717 162.900,343.714 161.800 C 343.711 160.700,343.787 160.203,343.882 160.695 C 343.977 161.186,343.979 162.086,343.887 162.695 M184.384 175.958 C 184.503 176.142,187.657 176.418,191.392 176.572 C 195.128 176.726,198.278 176.994,198.392 177.167 C 198.507 177.340,201.435 177.714,204.900 177.998 C 208.365 178.282,211.200 178.647,211.200 178.809 C 211.200 178.972,212.910 179.233,215.000 179.390 C 217.090 179.546,218.800 179.811,218.800 179.978 C 218.800 180.145,220.690 180.515,223.000 180.800 C 225.310 181.085,227.200 181.453,227.200 181.618 C 227.200 181.784,228.460 182.045,230.000 182.200 C 231.540 182.355,232.800 182.622,232.800 182.795 C 232.800 182.967,233.787 183.231,234.994 183.382 C 236.200 183.533,237.277 183.802,237.387 183.979 C 237.497 184.157,239.030 184.537,240.794 184.823 C 242.557 185.110,244.000 185.512,244.000 185.717 C 244.000 185.923,244.540 186.012,245.200 185.915 C 245.860 185.818,246.400 185.887,246.400 186.069 C 246.400 186.251,246.724 186.400,247.120 186.400 C 247.516 186.400,248.011 186.554,248.220 186.743 C 248.429 186.932,249.725 187.317,251.100 187.598 C 252.475 187.879,253.600 188.242,253.600 188.403 C 253.600 188.565,254.500 188.816,255.600 188.962 C 256.700 189.108,257.600 189.382,257.600 189.570 C 257.600 189.759,258.770 190.146,260.200 190.430 C 261.630 190.714,262.800 191.074,262.800 191.229 C 262.800 191.384,263.430 191.629,264.200 191.774 C 264.970 191.918,265.600 192.192,265.600 192.383 C 265.600 192.720,268.494 193.426,269.500 193.334 C 269.775 193.309,270.000 193.523,270.000 193.809 C 270.000 194.105,270.692 194.447,271.600 194.600 C 272.480 194.749,273.200 195.020,273.200 195.203 C 273.200 195.387,273.722 195.651,274.361 195.791 C 274.999 195.932,276.208 196.396,277.046 196.823 C 277.884 197.250,278.891 197.600,279.285 197.600 C 279.678 197.600,280.000 197.780,280.000 198.000 C 280.000 198.220,280.225 198.401,280.500 198.402 C 280.775 198.404,281.478 198.654,282.061 198.959 C 282.645 199.263,283.815 199.738,284.661 200.014 C 285.508 200.290,286.290 200.627,286.400 200.762 C 286.735 201.174,290.978 203.200,291.506 203.200 C 291.778 203.200,292.000 203.366,292.000 203.568 C 292.000 203.771,292.540 204.055,293.200 204.200 C 293.860 204.345,294.400 204.592,294.400 204.749 C 294.400 205.071,298.882 207.200,299.560 207.200 C 299.802 207.200,300.000 207.375,300.000 207.588 C 300.000 207.802,301.035 208.465,302.300 209.063 C 303.565 209.660,304.838 210.385,305.129 210.674 C 305.419 210.964,305.914 211.200,306.229 211.200 C 306.543 211.200,306.800 211.358,306.800 211.551 C 306.800 211.745,307.357 212.134,308.038 212.416 C 309.099 212.855,313.600 216.913,313.600 217.430 C 313.600 217.528,313.980 218.416,314.444 219.403 C 315.820 222.332,316.090 229.570,314.853 230.380 C 314.667 230.501,314.294 231.280,314.023 232.111 C 313.539 233.597,310.245 237.172,309.343 237.191 C 309.091 237.196,308.788 237.453,308.670 237.762 C 308.551 238.072,307.857 238.454,307.127 238.613 C 306.397 238.771,305.671 239.103,305.514 239.350 C 305.133 239.948,296.863 239.943,296.478 239.345 C 296.325 239.107,295.525 238.671,294.700 238.376 C 293.875 238.081,293.200 237.695,293.200 237.520 C 293.200 237.344,292.958 237.200,292.661 237.200 C 292.365 237.200,291.707 236.840,291.200 236.400 C 290.693 235.960,290.035 235.600,289.739 235.600 C 289.442 235.600,289.200 235.432,289.200 235.226 C 289.200 235.020,288.570 234.624,287.800 234.346 C 287.030 234.067,286.400 233.710,286.400 233.551 C 286.400 233.393,285.860 233.145,285.200 233.000 C 284.540 232.855,284.000 232.604,284.000 232.443 C 284.000 232.281,283.370 231.902,282.600 231.600 C 281.830 231.298,281.200 230.924,281.200 230.769 C 281.200 230.614,280.728 230.368,280.152 230.224 C 279.575 230.079,278.842 229.699,278.523 229.380 C 278.204 229.061,277.519 228.800,277.000 228.800 C 276.481 228.800,275.796 228.539,275.477 228.220 C 275.158 227.901,274.425 227.521,273.848 227.376 C 273.272 227.232,272.800 226.967,272.800 226.788 C 272.800 226.610,272.278 226.349,271.639 226.209 C 271.001 226.068,269.792 225.604,268.954 225.177 C 268.116 224.750,267.124 224.400,266.749 224.400 C 266.374 224.400,266.004 224.212,265.928 223.983 C 265.851 223.753,265.279 223.511,264.656 223.445 C 264.033 223.378,263.364 223.071,263.168 222.762 C 262.972 222.453,262.809 222.357,262.806 222.549 C 262.803 222.741,262.575 222.717,262.300 222.495 C 262.025 222.274,261.215 221.967,260.500 221.814 C 259.785 221.662,259.200 221.391,259.200 221.213 C 259.200 221.035,258.525 220.763,257.700 220.609 C 256.875 220.455,256.020 220.185,255.800 220.009 C 255.580 219.833,254.365 219.460,253.100 219.181 C 251.835 218.901,250.800 218.537,250.800 218.372 C 250.800 218.206,250.035 217.942,249.100 217.786 C 248.165 217.630,247.310 217.374,247.200 217.217 C 246.982 216.907,243.034 215.777,239.700 215.072 C 238.545 214.828,237.600 214.500,237.600 214.343 C 237.600 214.186,236.610 213.934,235.400 213.783 C 234.190 213.632,233.200 213.328,233.200 213.107 C 233.200 212.887,232.840 212.801,232.400 212.916 C 231.961 213.031,231.509 212.976,231.396 212.794 C 231.284 212.612,230.023 212.338,228.596 212.185 C 227.168 212.032,226.000 211.762,226.000 211.585 C 226.000 211.408,224.830 211.138,223.400 210.985 C 221.970 210.832,220.800 210.567,220.800 210.395 C 220.800 210.224,218.640 209.851,216.000 209.567 C 213.360 209.283,211.200 208.921,211.200 208.761 C 211.200 208.602,209.625 208.344,207.700 208.188 C 205.775 208.032,203.999 207.744,203.754 207.548 C 203.509 207.352,201.053 207.149,198.298 207.096 C 195.542 207.043,193.368 206.865,193.467 206.700 C 193.566 206.535,192.302 206.400,190.657 206.400 C 189.012 206.400,187.607 206.222,187.533 206.004 C 187.375 205.534,173.114 205.359,172.370 205.818 C 172.038 206.024,171.978 205.959,172.188 205.620 C 172.437 205.217,169.876 205.172,159.350 205.398 C 152.117 205.553,146.140 205.842,146.067 206.040 C 145.993 206.238,144.919 206.400,143.680 206.400 C 140.161 206.400,130.223 207.273,130.000 207.601 C 129.890 207.763,128.225 208.026,126.300 208.184 C 124.375 208.342,122.800 208.597,122.800 208.749 C 122.800 208.902,120.871 209.256,118.514 209.536 C 116.157 209.816,114.030 210.209,113.788 210.410 C 113.545 210.611,112.324 210.896,111.074 211.043 C 109.823 211.190,108.800 211.448,108.800 211.616 C 108.800 211.784,107.720 212.047,106.400 212.200 C 105.080 212.353,104.000 212.653,104.000 212.866 C 104.000 213.079,103.655 213.144,103.234 213.011 C 102.812 212.877,102.364 212.934,102.239 213.138 C 102.113 213.341,101.153 213.636,100.105 213.793 C 99.057 213.950,98.102 214.236,97.983 214.429 C 97.289 215.548,87.898 215.530,87.205 214.408 C 87.088 214.219,86.512 213.943,85.925 213.796 C 85.338 213.648,84.761 213.274,84.641 212.964 C 84.522 212.654,84.213 212.400,83.953 212.400 C 83.171 212.400,81.033 209.941,79.779 207.600 C 79.130 206.390,78.420 205.272,78.200 205.115 C 75.532 203.211,80.981 188.800,84.369 188.800 C 84.606 188.800,84.800 188.634,84.800 188.431 C 84.800 188.228,85.475 187.845,86.300 187.579 C 87.125 187.313,87.980 186.955,88.200 186.784 C 88.420 186.612,89.320 186.342,90.200 186.184 C 91.080 186.025,91.980 185.760,92.200 185.594 C 92.744 185.184,96.389 184.341,97.500 184.369 C 97.995 184.381,98.400 184.234,98.400 184.042 C 98.400 183.849,99.390 183.568,100.600 183.417 C 101.810 183.266,102.800 182.993,102.800 182.810 C 102.800 182.628,103.925 182.349,105.300 182.191 C 106.675 182.033,107.893 181.757,108.007 181.578 C 108.206 181.266,108.942 181.143,114.100 180.558 C 115.365 180.414,116.400 180.163,116.400 180.000 C 116.400 179.837,117.884 179.574,119.699 179.416 C 121.513 179.257,123.088 178.982,123.199 178.804 C 123.309 178.626,126.190 178.254,129.600 177.977 C 133.010 177.701,135.997 177.324,136.238 177.140 C 136.479 176.955,139.449 176.689,142.838 176.549 C 146.227 176.408,149.097 176.143,149.215 175.960 C 149.688 175.229,183.911 175.228,184.384 175.958 M162.800 239.500 C 162.800 239.665,165.843 239.800,169.562 239.800 C 173.281 239.800,176.240 239.665,176.138 239.500 C 176.036 239.335,176.773 239.200,177.776 239.200 C 178.779 239.200,179.600 239.380,179.600 239.600 C 179.600 239.840,181.200 240.000,183.600 240.000 C 185.800 240.000,187.600 240.153,187.600 240.339 C 187.600 240.526,189.985 240.801,192.900 240.950 C 200.762 241.354,203.773 241.656,204.036 242.070 C 204.166 242.273,204.976 242.442,205.836 242.443 C 208.768 242.450,210.783 242.688,211.292 243.087 C 211.571 243.306,213.735 243.718,216.100 244.002 C 218.465 244.286,220.400 244.651,220.400 244.813 C 220.400 244.975,221.435 245.236,222.700 245.392 C 223.965 245.549,225.180 245.821,225.400 245.998 C 225.620 246.174,227.195 246.541,228.900 246.814 C 230.605 247.087,232.000 247.448,232.000 247.617 C 232.000 247.787,232.900 248.049,234.000 248.200 C 235.100 248.351,236.000 248.615,236.000 248.786 C 236.000 248.958,236.756 249.219,237.680 249.366 C 238.604 249.514,239.574 249.813,239.836 250.030 C 240.097 250.247,241.411 250.618,242.756 250.855 C 244.100 251.092,245.200 251.432,245.200 251.611 C 245.200 251.790,245.785 252.062,246.500 252.214 C 247.215 252.367,247.982 252.638,248.205 252.817 C 248.428 252.995,249.463 253.355,250.505 253.618 C 251.547 253.880,252.400 254.254,252.400 254.447 C 252.400 254.641,252.680 254.800,253.022 254.800 C 253.364 254.800,254.444 255.165,255.422 255.610 C 256.400 256.056,257.784 256.537,258.498 256.680 C 259.212 256.822,260.035 257.178,260.327 257.470 C 260.618 257.761,261.114 258.000,261.429 258.000 C 261.743 258.000,262.000 258.172,262.000 258.382 C 262.000 258.592,262.630 258.882,263.400 259.026 C 264.170 259.171,264.800 259.421,264.800 259.581 C 264.800 259.742,265.565 260.102,266.500 260.381 C 267.435 260.660,268.290 261.005,268.400 261.148 C 268.719 261.563,272.961 263.600,273.506 263.600 C 273.778 263.600,274.000 263.795,274.000 264.033 C 274.000 264.272,274.221 264.393,274.491 264.303 C 274.762 264.213,275.293 264.423,275.672 264.770 C 276.052 265.116,277.404 265.940,278.678 266.600 C 279.951 267.260,281.221 268.013,281.499 268.274 C 281.777 268.534,282.395 268.871,282.872 269.023 C 283.348 269.174,283.932 269.459,284.169 269.656 C 286.132 271.290,286.577 271.602,286.961 271.615 C 287.441 271.632,289.600 274.569,289.600 275.205 C 289.600 275.422,289.762 275.600,289.960 275.600 C 291.254 275.600,291.435 284.108,290.168 285.375 C 289.855 285.687,289.600 286.119,289.600 286.335 C 289.600 286.809,286.163 290.400,285.709 290.400 C 285.533 290.400,284.695 290.771,283.849 291.225 C 282.761 291.808,281.571 292.050,279.788 292.050 C 278.092 292.050,276.672 291.780,275.455 291.225 C 274.459 290.771,273.454 290.400,273.222 290.400 C 272.990 290.400,272.800 290.249,272.800 290.064 C 272.800 289.788,271.144 288.837,270.400 288.685 C 270.197 288.644,269.604 288.186,268.634 287.320 C 268.339 287.056,267.625 286.721,267.048 286.576 C 266.472 286.432,266.000 286.186,266.000 286.031 C 266.000 285.876,265.370 285.502,264.600 285.200 C 263.830 284.898,263.200 284.519,263.200 284.357 C 263.200 284.196,262.660 283.945,262.000 283.800 C 261.340 283.655,260.800 283.400,260.800 283.232 C 260.800 283.065,260.080 282.690,259.200 282.400 C 258.320 282.110,257.600 281.741,257.600 281.580 C 257.600 281.420,256.970 281.171,256.200 281.026 C 255.430 280.882,254.800 280.571,254.800 280.335 C 254.800 280.097,254.427 280.004,253.960 280.126 C 253.499 280.247,253.226 280.241,253.354 280.112 C 253.681 279.786,251.597 278.755,251.158 279.026 C 250.961 279.148,250.800 279.071,250.800 278.855 C 250.800 278.640,250.260 278.345,249.600 278.200 C 248.940 278.055,248.400 277.771,248.400 277.568 C 248.400 277.366,248.120 277.200,247.778 277.200 C 247.436 277.200,246.401 276.860,245.478 276.445 C 244.555 276.030,243.215 275.566,242.500 275.414 C 241.785 275.261,241.200 274.987,241.200 274.803 C 241.200 274.620,240.435 274.342,239.500 274.186 C 238.565 274.030,237.705 273.752,237.588 273.570 C 237.471 273.387,236.166 273.008,234.688 272.727 C 233.210 272.447,232.000 272.094,232.000 271.944 C 232.000 271.793,231.280 271.549,230.400 271.400 C 229.520 271.251,228.800 270.990,228.800 270.819 C 228.800 270.648,227.972 270.395,226.959 270.256 C 225.947 270.118,224.357 269.746,223.426 269.430 C 222.495 269.113,220.624 268.729,219.267 268.576 C 217.910 268.422,216.800 268.153,216.800 267.977 C 216.800 267.801,215.765 267.532,214.500 267.379 C 213.235 267.226,212.020 266.988,211.800 266.850 C 211.580 266.713,210.860 266.559,210.200 266.509 C 206.977 266.263,201.377 265.423,201.195 265.158 C 201.082 264.994,198.742 264.730,195.995 264.572 C 193.094 264.406,190.880 264.100,190.715 263.843 C 190.305 263.207,147.948 263.218,147.161 263.854 C 146.849 264.106,144.159 264.435,141.100 264.595 C 138.075 264.753,135.600 265.013,135.600 265.173 C 135.600 265.457,127.894 266.405,125.300 266.439 C 124.585 266.449,124.000 266.603,124.000 266.781 C 124.000 266.959,122.470 267.233,120.600 267.389 C 118.730 267.544,117.200 267.836,117.200 268.036 C 117.200 268.236,116.525 268.407,115.700 268.416 C 114.875 268.425,112.850 268.699,111.200 269.025 C 109.550 269.351,107.210 269.797,106.000 270.015 C 104.790 270.233,103.372 270.632,102.848 270.901 C 101.248 271.724,93.904 271.560,93.025 270.682 C 92.630 270.287,92.119 270.027,91.889 270.104 C 91.660 270.180,90.735 269.427,89.836 268.429 C 88.936 267.431,87.982 266.381,87.716 266.095 C 87.449 265.808,87.114 264.950,86.971 264.187 C 86.828 263.424,86.551 262.800,86.355 262.800 C 85.894 262.800,85.891 257.878,86.352 257.380 C 86.545 257.171,86.924 256.311,87.193 255.469 C 87.778 253.638,90.425 250.892,92.617 249.841 C 93.488 249.424,94.509 248.931,94.886 248.746 C 95.264 248.561,96.569 248.293,97.786 248.150 C 99.004 248.007,100.000 247.764,100.000 247.610 C 100.000 247.456,101.800 247.091,104.000 246.800 C 106.200 246.509,108.000 246.120,108.000 245.935 C 108.000 245.751,108.414 245.600,108.920 245.600 C 109.426 245.600,110.082 245.375,110.379 245.100 C 110.682 244.819,110.807 244.797,110.666 245.050 C 110.383 245.557,114.050 245.304,114.400 244.792 C 114.510 244.632,116.850 244.269,119.600 243.987 C 122.350 243.705,124.704 243.317,124.831 243.125 C 124.959 242.932,126.847 242.677,129.027 242.557 C 131.208 242.437,133.174 242.192,133.396 242.014 C 133.887 241.619,137.104 241.324,144.900 240.956 C 148.145 240.804,150.800 240.526,150.800 240.339 C 150.800 240.153,152.690 240.000,155.000 240.000 C 157.533 240.000,159.200 239.841,159.200 239.600 C 159.200 239.380,160.010 239.200,161.000 239.200 C 161.990 239.200,162.800 239.335,162.800 239.500 M158.300 263.876 C 157.915 263.976,157.285 263.976,156.900 263.876 C 156.515 263.775,156.830 263.693,157.600 263.693 C 158.370 263.693,158.685 263.775,158.300 263.876 M181.500 263.876 C 181.115 263.976,180.485 263.976,180.100 263.876 C 179.715 263.775,180.030 263.693,180.800 263.693 C 181.570 263.693,181.885 263.775,181.500 263.876 "
              stroke="none" fill="#1cd464" fill-rule="evenodd"></path>
        <path id="path1"
              d="M152.705 144.283 C 153.202 144.379,153.922 144.375,154.305 144.275 C 154.687 144.175,154.280 144.096,153.400 144.101 C 152.520 144.105,152.207 144.187,152.705 144.283 M188.100 144.276 C 188.485 144.376,189.115 144.376,189.500 144.276 C 189.885 144.175,189.570 144.093,188.800 144.093 C 188.030 144.093,187.715 144.175,188.100 144.276 M343.714 161.800 C 343.717 162.900,343.795 163.303,343.887 162.695 C 343.979 162.086,343.977 161.186,343.882 160.695 C 343.787 160.203,343.711 160.700,343.714 161.800 M162.700 175.498 C 164.955 175.570,168.645 175.570,170.900 175.498 C 173.155 175.427,171.310 175.369,166.800 175.369 C 162.290 175.369,160.445 175.427,162.700 175.498 M157.300 205.487 C 157.905 205.578,158.895 205.578,159.500 205.487 C 160.105 205.395,159.610 205.320,158.400 205.320 C 157.190 205.320,156.695 205.395,157.300 205.487 M172.257 205.507 C 172.153 205.676,172.817 205.757,173.734 205.686 C 176.425 205.479,176.753 205.296,174.524 205.246 C 173.382 205.221,172.362 205.338,172.257 205.507 M159.200 239.600 C 159.200 239.820,160.010 240.000,161.000 240.000 C 161.990 240.000,162.800 239.820,162.800 239.600 C 162.800 239.380,161.990 239.200,161.000 239.200 C 160.010 239.200,159.200 239.380,159.200 239.600 M176.200 239.600 C 176.336 239.820,177.157 240.000,178.024 240.000 C 178.891 240.000,179.600 239.820,179.600 239.600 C 179.600 239.380,178.779 239.200,177.776 239.200 C 176.663 239.200,176.049 239.356,176.200 239.600 M156.900 263.876 C 157.285 263.976,157.915 263.976,158.300 263.876 C 158.685 263.775,158.370 263.693,157.600 263.693 C 156.830 263.693,156.515 263.775,156.900 263.876 M180.100 263.876 C 180.485 263.976,181.115 263.976,181.500 263.876 C 181.885 263.775,181.570 263.693,180.800 263.693 C 180.030 263.693,179.715 263.775,180.100 263.876 "
              stroke="none" fill="#20d464" fill-rule="evenodd"></path>
    </g>
</svg>